<svg viewBox="0 0 400 500" fill="none" xmlns="http://www.w3.org/2000/svg">
  <defs>
    <radialGradient id="pr-light1" cx="50%" cy="0%" r="70%">
      <stop offset="0%" stop-color="#A8D060" stop-opacity="0.18"/>
      <stop offset="100%" stop-color="#162410" stop-opacity="0"/>
    </radialGradient>
    <radialGradient id="pr-spot" cx="50%" cy="50%" r="50%">
      <stop offset="0%" stop-color="#D4F0A0" stop-opacity="0.22"/>
      <stop offset="100%" stop-color="#162410" stop-opacity="0"/>
    </radialGradient>
    <pattern id="pr-grain" patternUnits="userSpaceOnUse" width="4" height="4">
      <circle cx="1" cy="1" r="0.4" fill="#8DC468" opacity="0.07"/>
      <circle cx="3" cy="3" r="0.3" fill="#8DC468" opacity="0.05"/>
    </pattern>
    <clipPath id="pr-clip">
      <rect width="400" height="500"/>
    </clipPath>
  </defs>

  <g clip-path="url(#pr-clip)">
    <!-- Background -->
    <rect width="400" height="500" fill="#162410"/>
    <rect width="400" height="500" fill="url(#pr-grain)"/>
    <rect width="400" height="500" fill="url(#pr-light1)"/>

    <!-- Ghost number -->
    <text x="360" y="490" font-family="system-ui,sans-serif" font-size="160"
          font-weight="800" fill="#8DC468" opacity="0.04" text-anchor="middle">03</text>

    <!-- Ceiling rail -->
    <rect x="0" y="22" width="400" height="6" rx="2" fill="#2A3E20" stroke="#3A5528" stroke-width="0.8"/>
    <circle cx="40"  cy="25" r="3" fill="#1A2E12" stroke="#4A6830" stroke-width="0.8"/>
    <circle cx="120" cy="25" r="3" fill="#1A2E12" stroke="#4A6830" stroke-width="0.8"/>
    <circle cx="200" cy="25" r="3" fill="#1A2E12" stroke="#4A6830" stroke-width="0.8"/>
    <circle cx="280" cy="25" r="3" fill="#1A2E12" stroke="#4A6830" stroke-width="0.8"/>
    <circle cx="360" cy="25" r="3" fill="#1A2E12" stroke="#4A6830" stroke-width="0.8"/>

    <!-- Left studio light -->
    <line x1="80" y1="28" x2="80" y2="52" stroke="#4A6830" stroke-width="2.5"/>
    <rect x="64" y="52" width="32" height="14" rx="3" fill="#2A3E20" stroke="#5B9A3A" stroke-width="1"/>
    <rect x="60" y="54" width="8" height="10" rx="1" fill="#1C2E14" stroke="#4A6830" stroke-width="0.8"
          transform="rotate(-22 64 59)"/>
    <rect x="96" y="54" width="8" height="10" rx="1" fill="#1C2E14" stroke="#4A6830" stroke-width="0.8"
          transform="rotate(22 96 59)"/>
    <polygon points="68,66 40,170 118,170 96,66" fill="#A8D060" opacity="0.06"/>
    <circle cx="80" cy="59" r="8" fill="#1A2E12" stroke="#8DC468" stroke-width="0.6" opacity="0.8"/>
    <circle cx="80" cy="59" r="5" fill="#243618" stroke="#8DC468" stroke-width="0.4" opacity="0.7"/>
    <circle cx="80" cy="59" r="2.5" fill="#5B9A3A" opacity="0.9"/>

    <!-- Right studio light -->
    <line x1="320" y1="28" x2="320" y2="52" stroke="#4A6830" stroke-width="2.5"/>
    <rect x="304" y="52" width="32" height="14" rx="3" fill="#2A3E20" stroke="#5B9A3A" stroke-width="1"/>
    <rect x="300" y="54" width="8" height="10" rx="1" fill="#1C2E14" stroke="#4A6830" stroke-width="0.8"
          transform="rotate(-22 304 59)"/>
    <rect x="336" y="54" width="8" height="10" rx="1" fill="#1C2E14" stroke="#4A6830" stroke-width="0.8"
          transform="rotate(22 340 59)"/>
    <polygon points="304,66 282,170 360,170 336,66" fill="#A8D060" opacity="0.06"/>
    <circle cx="320" cy="59" r="8" fill="#1A2E12" stroke="#8DC468" stroke-width="0.6" opacity="0.8"/>
    <circle cx="320" cy="59" r="5" fill="#243618" stroke="#8DC468" stroke-width="0.4" opacity="0.7"/>
    <circle cx="320" cy="59" r="2.5" fill="#5B9A3A" opacity="0.9"/>

    <!-- Spotlight halo behind dock -->
    <ellipse cx="200" cy="220" rx="90" ry="70" fill="url(#pr-spot)"/>

    <!-- Camera dock -->
    <rect x="132" y="174" width="136" height="92" rx="4" fill="#1E3418" opacity="0.7"/>
    <rect x="135" y="178" width="130" height="85" rx="3"
          stroke="#8DC468" stroke-width="1.5" stroke-dasharray="6 4" fill="none"/>
    <path d="M135 191 L135 178 L148 178" stroke="#8DC468" stroke-width="2" fill="none" stroke-linecap="square"/>
    <path d="M252 178 L265 178 L265 191" stroke="#8DC468" stroke-width="2" fill="none" stroke-linecap="square"/>
    <path d="M135 250 L135 263 L148 263" stroke="#8DC468" stroke-width="2" fill="none" stroke-linecap="square"/>
    <path d="M252 263 L265 263 L265 250" stroke="#8DC468" stroke-width="2" fill="none" stroke-linecap="square"/>
    <line x1="196" y1="220.5" x2="204" y2="220.5" stroke="#8DC468" stroke-width="1" opacity="0.6"/>
    <line x1="200" y1="216.5" x2="200" y2="224.5" stroke="#8DC468" stroke-width="1" opacity="0.6"/>
    <line x1="200" y1="178" x2="200" y2="185" stroke="#8DC468" stroke-width="0.8" opacity="0.35"/>
    <line x1="200" y1="263" x2="200" y2="256" stroke="#8DC468" stroke-width="0.8" opacity="0.35"/>
    <line x1="135" y1="220" x2="142" y2="220" stroke="#8DC468" stroke-width="0.8" opacity="0.35"/>
    <line x1="265" y1="220" x2="258" y2="220" stroke="#8DC468" stroke-width="0.8" opacity="0.35"/>
    <text x="200" y="274" font-family="monospace,system-ui" font-size="8.5" fill="#8DC468"
          text-anchor="middle" letter-spacing="4" opacity="0.8">MAIN SHOT</text>

    <!-- Clapperboard (top left) -->
    <rect x="20" y="100" width="80" height="60" rx="3" fill="#F7F5F0" stroke="#3A5528" stroke-width="1.5"/>
    <rect x="20" y="100" width="80" height="14" fill="none" stroke="#1C1C1C" stroke-width="1"/>
    <polygon points="20,100 36,100 20,114" fill="#1C1C1C"/>
    <polygon points="36,100 52,100 36,114" fill="#1C1C1C"/>
    <polygon points="52,100 68,100 52,114" fill="#1C1C1C"/>
    <polygon points="68,100 84,100 68,114" fill="#1C1C1C"/>
    <polygon points="84,100 100,100 84,114" fill="#1C1C1C"/>
    <rect x="24" y="119" width="44" height="2.5" rx="1" fill="#3A5528" opacity="0.5"/>
    <rect x="24" y="125" width="34" height="2" rx="1" fill="#3A5528" opacity="0.35"/>
    <rect x="24" y="130" width="38" height="2" rx="1" fill="#3A5528" opacity="0.35"/>
    <rect x="24" y="135" width="28" height="2" rx="1" fill="#3A5528" opacity="0.28"/>
    <text x="60" y="154" font-family="system-ui,sans-serif" font-size="7"
          fill="#8DC468" opacity="0.5" text-anchor="middle" letter-spacing="1.5">SLATE</text>

    <!-- ACTION indicator -->
    <rect x="290" y="92" width="90" height="24" rx="4" fill="#0E1C0A" stroke="#5B9A3A" stroke-width="1.2"/>
    <circle cx="302" cy="104" r="5" fill="#CC2222"/>
    <circle cx="302" cy="104" r="3" fill="#FF4444" opacity="0.9"/>
    <text x="348" y="108" font-family="system-ui,sans-serif" font-size="11"
          font-weight="700" fill="#8DC468" text-anchor="middle" letter-spacing="3">ACTION</text>

    <!-- Boom mic (left) -->
    <line x1="16" y1="90" x2="120" y2="160" stroke="#4A6830" stroke-width="1.5"/>
    <rect x="112" y="155" width="16" height="36" rx="7" fill="#2A3E20" stroke="#5B9A3A" stroke-width="1"/>
    <line x1="115" y1="165" x2="125" y2="165" stroke="#5B9A3A" stroke-width="0.5" opacity="0.4"/>
    <line x1="115" y1="169" x2="125" y2="169" stroke="#5B9A3A" stroke-width="0.5" opacity="0.4"/>
    <line x1="115" y1="173" x2="125" y2="173" stroke="#5B9A3A" stroke-width="0.5" opacity="0.4"/>
    <line x1="115" y1="177" x2="125" y2="177" stroke="#5B9A3A" stroke-width="0.5" opacity="0.4"/>

    <!-- Monitor (right) -->
    <rect x="292" y="160" width="92" height="62" rx="4" fill="#0E1C0A" stroke="#5B9A3A" stroke-width="1"/>
    <rect x="296" y="165" width="84" height="3" rx="1" fill="#3A5528" opacity="0.6"/>
    <rect x="296" y="171" width="60" height="2" rx="1" fill="#5B9A3A" opacity="0.4"/>
    <rect x="297" y="182" width="4" height="8"  rx="1" fill="#5B9A3A" opacity="0.6"/>
    <rect x="303" y="178" width="4" height="12" rx="1" fill="#8DC468" opacity="0.7"/>
    <rect x="309" y="184" width="4" height="6"  rx="1" fill="#5B9A3A" opacity="0.5"/>
    <rect x="315" y="180" width="4" height="10" rx="1" fill="#8DC468" opacity="0.65"/>
    <rect x="321" y="185" width="4" height="5"  rx="1" fill="#5B9A3A" opacity="0.5"/>
    <rect x="327" y="179" width="4" height="11" rx="1" fill="#8DC468" opacity="0.6"/>
    <rect x="333" y="183" width="4" height="7"  rx="1" fill="#5B9A3A" opacity="0.55"/>
    <rect x="339" y="177" width="4" height="13" rx="1" fill="#8DC468" opacity="0.7"/>
    <rect x="345" y="182" width="4" height="8"  rx="1" fill="#5B9A3A" opacity="0.5"/>
    <rect x="351" y="181" width="4" height="9"  rx="1" fill="#8DC468" opacity="0.6"/>
    <rect x="357" y="184" width="4" height="6"  rx="1" fill="#5B9A3A" opacity="0.45"/>
    <rect x="363" y="180" width="4" height="10" rx="1" fill="#8DC468" opacity="0.55"/>
    <text x="300" y="218" font-family="monospace,system-ui" font-size="7.5"
          fill="#5B9A3A" opacity="0.7" letter-spacing="1">01:24:07:14</text>

    <!-- Scene counter -->
    <rect x="16" y="350" width="110" height="34" rx="3" fill="#0E1C0A" stroke="#3A5528" stroke-width="1"/>
    <text x="22" y="362" font-family="system-ui,sans-serif" font-size="7"
          fill="#5B9A3A" opacity="0.6" letter-spacing="1">SCENE</text>
    <text x="22" y="378" font-family="monospace,system-ui" font-size="14"
          font-weight="700" fill="#8DC468" opacity="0.85" letter-spacing="2">004 / A</text>

    <!-- Bokeh -->
    <circle cx="34"  cy="300" r="9" fill="none" stroke="#5B9A3A" stroke-width="1" opacity="0.2"/>
    <circle cx="355" cy="320" r="12" fill="none" stroke="#8DC468" stroke-width="0.8" opacity="0.15"/>
    <circle cx="22"  cy="200" r="1"  fill="#CDE8B4" opacity="0.5"/>
    <circle cx="370" cy="240" r="1.2" fill="#CDE8B4" opacity="0.45"/>
    <circle cx="388" cy="390" r="1"  fill="#CDE8B4" opacity="0.4"/>

    <!-- Floor line -->
    <line x1="0" y1="410" x2="400" y2="410" stroke="#3A5528" stroke-width="0.8" opacity="0.4" stroke-dasharray="8 4"/>

    <!-- Film strip (bottom) -->
    <rect x="0" y="430" width="400" height="52" fill="#0E1C0A" stroke="#3A5528" stroke-width="1"/>
    <!-- top sprocket holes -->
    <rect x="6"   y="433" width="10" height="8" rx="2" fill="#162410" stroke="#3A5528" stroke-width="0.8"/>
    <rect x="26"  y="433" width="10" height="8" rx="2" fill="#162410" stroke="#3A5528" stroke-width="0.8"/>
    <rect x="46"  y="433" width="10" height="8" rx="2" fill="#162410" stroke="#3A5528" stroke-width="0.8"/>
    <rect x="66"  y="433" width="10" height="8" rx="2" fill="#162410" stroke="#3A5528" stroke-width="0.8"/>
    <rect x="86"  y="433" width="10" height="8" rx="2" fill="#162410" stroke="#3A5528" stroke-width="0.8"/>
    <rect x="106" y="433" width="10" height="8" rx="2" fill="#162410" stroke="#3A5528" stroke-width="0.8"/>
    <rect x="126" y="433" width="10" height="8" rx="2" fill="#162410" stroke="#3A5528" stroke-width="0.8"/>
    <rect x="146" y="433" width="10" height="8" rx="2" fill="#162410" stroke="#3A5528" stroke-width="0.8"/>
    <rect x="166" y="433" width="10" height="8" rx="2" fill="#162410" stroke="#3A5528" stroke-width="0.8"/>
    <rect x="186" y="433" width="10" height="8" rx="2" fill="#162410" stroke="#3A5528" stroke-width="0.8"/>
    <rect x="206" y="433" width="10" height="8" rx="2" fill="#162410" stroke="#3A5528" stroke-width="0.8"/>
    <rect x="226" y="433" width="10" height="8" rx="2" fill="#162410" stroke="#3A5528" stroke-width="0.8"/>
    <rect x="246" y="433" width="10" height="8" rx="2" fill="#162410" stroke="#3A5528" stroke-width="0.8"/>
    <rect x="266" y="433" width="10" height="8" rx="2" fill="#162410" stroke="#3A5528" stroke-width="0.8"/>
    <rect x="286" y="433" width="10" height="8" rx="2" fill="#162410" stroke="#3A5528" stroke-width="0.8"/>
    <rect x="306" y="433" width="10" height="8" rx="2" fill="#162410" stroke="#3A5528" stroke-width="0.8"/>
    <rect x="326" y="433" width="10" height="8" rx="2" fill="#162410" stroke="#3A5528" stroke-width="0.8"/>
    <rect x="346" y="433" width="10" height="8" rx="2" fill="#162410" stroke="#3A5528" stroke-width="0.8"/>
    <rect x="366" y="433" width="10" height="8" rx="2" fill="#162410" stroke="#3A5528" stroke-width="0.8"/>
    <rect x="386" y="433" width="10" height="8" rx="2" fill="#162410" stroke="#3A5528" stroke-width="0.8"/>
    <!-- frames -->
    <rect x="6"   y="445" width="30" height="30" rx="1" fill="#1E3418" stroke="#3A5528" stroke-width="0.6"/>
    <rect x="44"  y="445" width="30" height="30" rx="1" fill="#243C1A" stroke="#3A5528" stroke-width="0.6"/>
    <rect x="82"  y="445" width="30" height="30" rx="1" fill="#1A2E12" stroke="#3A5528" stroke-width="0.6"/>
    <rect x="120" y="445" width="30" height="30" rx="1" fill="#1E3418" stroke="#3A5528" stroke-width="0.6"/>
    <rect x="158" y="445" width="30" height="30" rx="1" fill="#243C1A" stroke="#3A5528" stroke-width="0.6"/>
    <rect x="196" y="445" width="30" height="30" rx="1" fill="#2A4820" stroke="#5B9A3A" stroke-width="0.8"/>
    <rect x="234" y="445" width="30" height="30" rx="1" fill="#1E3418" stroke="#3A5528" stroke-width="0.6"/>
    <rect x="272" y="445" width="30" height="30" rx="1" fill="#243C1A" stroke="#3A5528" stroke-width="0.6"/>
    <rect x="310" y="445" width="30" height="30" rx="1" fill="#1A2E12" stroke="#3A5528" stroke-width="0.6"/>
    <rect x="348" y="445" width="44" height="30" rx="1" fill="#1E3418" stroke="#3A5528" stroke-width="0.6"/>
    <!-- bottom sprocket holes -->
    <rect x="6"   y="478" width="10" height="8" rx="2" fill="#162410" stroke="#3A5528" stroke-width="0.8"/>
    <rect x="26"  y="478" width="10" height="8" rx="2" fill="#162410" stroke="#3A5528" stroke-width="0.8"/>
    <rect x="46"  y="478" width="10" height="8" rx="2" fill="#162410" stroke="#3A5528" stroke-width="0.8"/>
    <rect x="66"  y="478" width="10" height="8" rx="2" fill="#162410" stroke="#3A5528" stroke-width="0.8"/>
    <rect x="86"  y="478" width="10" height="8" rx="2" fill="#162410" stroke="#3A5528" stroke-width="0.8"/>
    <rect x="106" y="478" width="10" height="8" rx="2" fill="#162410" stroke="#3A5528" stroke-width="0.8"/>
    <rect x="126" y="478" width="10" height="8" rx="2" fill="#162410" stroke="#3A5528" stroke-width="0.8"/>
    <rect x="146" y="478" width="10" height="8" rx="2" fill="#162410" stroke="#3A5528" stroke-width="0.8"/>
    <rect x="166" y="478" width="10" height="8" rx="2" fill="#162410" stroke="#3A5528" stroke-width="0.8"/>
    <rect x="186" y="478" width="10" height="8" rx="2" fill="#162410" stroke="#3A5528" stroke-width="0.8"/>
    <rect x="206" y="478" width="10" height="8" rx="2" fill="#162410" stroke="#3A5528" stroke-width="0.8"/>
    <rect x="226" y="478" width="10" height="8" rx="2" fill="#162410" stroke="#3A5528" stroke-width="0.8"/>
    <rect x="246" y="478" width="10" height="8" rx="2" fill="#162410" stroke="#3A5528" stroke-width="0.8"/>
    <rect x="266" y="478" width="10" height="8" rx="2" fill="#162410" stroke="#3A5528" stroke-width="0.8"/>
    <rect x="286" y="478" width="10" height="8" rx="2" fill="#162410" stroke="#3A5528" stroke-width="0.8"/>
    <rect x="306" y="478" width="10" height="8" rx="2" fill="#162410" stroke="#3A5528" stroke-width="0.8"/>
    <rect x="326" y="478" width="10" height="8" rx="2" fill="#162410" stroke="#3A5528" stroke-width="0.8"/>
    <rect x="346" y="478" width="10" height="8" rx="2" fill="#162410" stroke="#3A5528" stroke-width="0.8"/>
    <rect x="366" y="478" width="10" height="8" rx="2" fill="#162410" stroke="#3A5528" stroke-width="0.8"/>
    <rect x="386" y="478" width="10" height="8" rx="2" fill="#162410" stroke="#3A5528" stroke-width="0.8"/>
  </g>
</svg>
